<?xml version="1.0" encoding="UTF-8"?>
<svg width="1213px" height="231px" viewBox="0 0 1213 231" version="1.1" xmlns="http://www.w3.org/2000/svg" xmlns:xlink="http://www.w3.org/1999/xlink">
    <title>黑</title>
    <defs>
        <radialGradient cx="57.0669538%" cy="60.0771172%" fx="57.0669538%" fy="60.0771172%" r="61.6304264%" gradientTransform="translate(0.570670,0.600771),scale(1.000000,0.962853),rotate(180.000000),scale(1.000000,1.472211),translate(-0.570670,-0.600771)" id="radialGradient-1">
            <stop stop-color="#3AEEDE" offset="0%"></stop>
            <stop stop-color="#3AE1E0" offset="42.8296674%"></stop>
            <stop stop-color="#3964EF" offset="100%"></stop>
        </radialGradient>
        <rect id="path-2" x="0" y="0" width="167" height="173"></rect>
    </defs>
    <g id="飞机稿" stroke="none" stroke-width="1" fill="none" fill-rule="evenodd">
        <g id="Group-12-Copy-44">
            <path d="M92.124183,19 C117.384446,19 137.978052,38.9803301 138.963119,63.9991064 L138.987738,63.9997453 C138.995897,64.3321734 139,64.6656075 139,65 C139,78.3464756 132.463444,90.1662568 122.417031,97.4326442 C135.407788,103.899607 144.620614,116.821416 145.857933,131.999828 L122,132 L145.897579,132.00057 C145.965502,133.033002 146,134.074564 146,135.124183 C146,161.012982 125.012982,182 99.124183,182 L0,182 L0,19 L92.124183,19 Z M90,115 L38,115 L38,145 L90,145 C98.2842712,145 105,138.284271 105,130 C105,121.715729 98.2842712,115 90,115 Z M86,57 L38,57 L38,85 L86,85 C93.7319865,85 100,78.7319865 100,71 C100,63.2680135 93.7319865,57 86,57 Z" id="Combined-Shape" fill="#000000"></path>
            <path d="M463.690402,130.800848 C468.019304,140.721819 480.17775,147.867246 494.5,147.867246 C503.556326,147.867246 511.747485,145.010249 517.64103,140.401078 L556.969931,140.401552 C548.006461,164.386711 525.065729,181.553542 498.058357,181.991426 L498,181.991 L498,182 L492,182 C456.653776,182 428,153.346224 428,118 C428,82.653776 456.653776,54 492,54 L498,54 L498,54.008 L498.058357,54.0085742 C532.564332,54.568036 560.431964,82.4356677 560.991426,116.941643 L561,118 C561,122.383992 560.559206,126.665031 559.719521,130.801215 L463.690402,130.800848 Z M494.5,90.2666667 C481.383694,90.2666667 470.082145,96.3869585 464.947039,105.199754 L464.947039,105.199754 L524.052961,105.199754 C518.917855,96.3869585 507.616306,90.2666667 494.5,90.2666667 Z" id="Combined-Shape" fill="#000000"></path>
            <path d="M1115.6904,130.800848 C1120.0193,140.721819 1132.17775,147.867246 1146.5,147.867246 C1155.55633,147.867246 1163.74749,145.010249 1169.64103,140.401078 L1208.96993,140.401552 C1200.00646,164.386711 1177.06573,181.553542 1150.05836,181.991426 L1150,181.991 L1150,182 L1144,182 C1108.65378,182 1080,153.346224 1080,118 C1080,82.653776 1108.65378,54 1144,54 L1150,54 L1150,54.008 L1150.05836,54.0085742 C1184.56433,54.568036 1212.43196,82.4356677 1212.99143,116.941643 L1213,118 C1213,122.383992 1212.55921,126.665031 1211.71952,130.801215 L1115.6904,130.800848 Z M1146.5,90.2666667 C1133.38369,90.2666667 1122.08215,96.3869585 1116.94704,105.199754 L1116.94704,105.199754 L1176.05296,105.199754 C1170.91785,96.3869585 1159.61631,90.2666667 1146.5,90.2666667 Z" id="Combined-Shape-Copy" fill="#000000"></path>
            <path d="M1013.938,19 L981,100.5 L1013.938,182 L954,182 L954,19 L1013.938,19 Z M1097.425,19 L1018,100.5 L1110.945,182 L1039.5,182 L993,100.5 L1039.5,19 L1097.425,19 Z" id="Combined-Shape" fill="url(#radialGradient-1)" transform="translate(1032.472500, 100.500000) scale(1, -1) translate(-1032.472500, -100.500000) "></path>
            <path d="M806.5,54 C839.913227,54 867,78.2107152 867,118 C867,157.789285 839.913227,182 806.5,182 C790.923924,182 776.722648,175.773254 765.999238,165.544493 L766,230 L730,230 L730,58 L766,58 L765.999238,70.4555068 C776.722648,60.226746 790.923924,54 806.5,54 Z M798.5,89 C783.864454,89 772,100.864454 772,115.5 L772,115.5 L772,120.5 C772,135.135546 783.864454,147 798.5,147 C813.135546,147 825,135.135546 825,120.5 L825,120.5 L825,115.5 C825,100.864454 813.135546,89 798.5,89 Z" id="Combined-Shape" fill="#000000"></path>
            <path d="M662.331,182 C673.023,182 682.1355,179.732 689.6685,175.196 C697.2015,170.66 702.912,164.666 706.8,157.214 C710.688,149.762 712.632,141.824 712.632,133.4 C712.632,122.708 709.392,113.15 702.912,104.726 C696.432,96.302 687.036,90.632 674.724,87.716 L674.724,87.716 L617.376,74.594 C615.108,73.946 613.2855,72.812 611.9085,71.192 C610.5315,69.572 609.843,67.79 609.843,65.846 C609.843,63.578 610.6125,61.715 612.1515,60.257 C613.6905,58.799 615.999,58.07 619.077,58.07 L619.077,58.07 L699.024,58.07 C699.834,58.07 700.482,57.7865 700.968,57.2195 C701.454,56.6525 701.697,56.045 701.697,55.397 L701.697,55.397 L701.697,21.863 C701.697,21.053 701.454,20.405 700.968,19.919 C700.482,19.433 699.834,19.19 699.024,19.19 L699.024,19.19 L616.404,19.19 C605.874,19.19 596.883,21.4175 589.431,25.8725 C581.979,30.3275 576.3495,36.1595 572.5425,43.3685 C568.7355,50.5775 566.832,58.313 566.832,66.575 C566.832,77.105 570.072,86.582 576.552,95.006 C583.032,103.43 592.428,109.1 604.74,112.016 L604.74,112.016 L662.331,125.381 C665.085,126.029 667.1505,127.1225 668.5275,128.6615 C669.9045,130.2005 670.593,132.023 670.593,134.129 C670.593,136.397 669.702,138.4625 667.92,140.3255 C666.138,142.1885 663.789,143.12 660.873,143.12 L660.873,143.12 L576.066,143.12 C575.418,143.12 574.8105,143.363 574.2435,143.849 C573.6765,144.335 573.393,144.983 573.393,145.793 L573.393,145.793 L573.393,179.327 C573.393,179.975 573.6765,180.5825 574.2435,181.1495 C574.8105,181.7165 575.418,182 576.066,182 L576.066,182 L662.331,182 Z" id="S" fill="#000000" fill-rule="nonzero"></path>
            <path d="M922,58 L922,182 L884,182 L884,58 L922,58 Z M903,0 C916.254834,0 927,10.745166 927,24 C927,37.254834 916.254834,48 903,48 C889.745166,48 879,37.254834 879,24 C879,10.745166 889.745166,0 903,0 Z" id="Combined-Shape" fill="#000000"></path>
            <path d="M371,19 L370.999967,58 L418,58 L417.999967,96 L371,96 L371,126 C371,137.045695 379.954305,146 391,146 L391,146 L417.999967,146 L418,182 L379,182 C354.699471,182 335,162.300529 335,138 L334.999967,96 L309.725967,96 L309.725967,58 L335,58 L335,19 L371,19 Z" id="Combined-Shape" fill="#000000"></path>
            <g id="Group-9" transform="translate(148.000000, 58.000000)">
                <mask id="mask-3" fill="white">
                    <use xlink:href="#path-2"></use>
                </mask>
                <g id="Mask"></g>
                <path d="M104.994926,-26.1152384 L71.5206007,97.0265262 C67.9694169,110.090241 56.1089264,119.157031 42.571144,119.157031 L42.571144,119.157031 L1.09337546,119.157031 L6.94837546,88.7787616 L23.2459001,89.0396228 C28.7950194,89.1280649 33.6662942,85.4025011 35.0524157,80.0554794 L35.1245491,79.7622288 L59.7753755,-26.1152384 L104.994926,-26.1152384 Z" id="Combined-Shape-Copy-4" fill="#000000" mask="url(#mask-3)" transform="translate(53.044151, 46.520896) scale(-1, 1) translate(-53.044151, -46.520896) "></path>
                <line x1="76" y1="-38" x2="147" y2="194" id="Path" stroke="#000000" stroke-width="40" stroke-linecap="round" stroke-linejoin="round" mask="url(#mask-3)" transform="translate(111.500000, 78.000000) scale(1, -1) translate(-111.500000, -78.000000) "></line>
            </g>
        </g>
    </g>
</svg>